<?xml version="1.0" standalone="no"?><!DOCTYPE svg PUBLIC "-//W3C//DTD SVG 1.1//EN" "http://www.w3.org/Graphics/SVG/1.1/DTD/svg11.dtd"><svg t="1713596032324" class="icon" viewBox="0 0 1024 1024" version="1.1" xmlns="http://www.w3.org/2000/svg" p-id="1572" xmlns:xlink="http://www.w3.org/1999/xlink" width="200" height="200"><path d="M511.998 81.856c-237.556 0-430.14 192.588-430.14 430.148 0 237.55 192.584 430.134 430.14 430.134s430.14-192.584 430.14-430.134c0-237.56-192.584-430.148-430.14-430.148z" fill="#EDF3FC" p-id="1573"></path><path d="M511.998 2C230.782 2 2 230.784 2 512.004 2 793.218 230.782 1022 511.998 1022S1022 793.218 1022 512.004C1022 230.784 793.214 2 511.998 2z m0 1003.662c-272.206 0-493.66-221.456-493.66-493.658 0-272.21 221.454-493.668 493.66-493.668 272.204 0 493.664 221.458 493.664 493.668 0 272.202-221.46 493.658-493.664 493.658z" fill="#EDF3FC" p-id="1574"></path><path d="M506.018 368.704a109.68 109.68 0 0 1-15.192 1.052c-34.066 0-64.474-15.622-84.476-40.088-31.694 19.082-52.898 53.81-52.898 93.504a108.534 108.534 0 0 0 15.514 56.074h187.112a108.738 108.738 0 0 0 11.278-25.918c-32.806-15.63-56.576-47.152-61.338-84.624z" fill="#FFBE1B" p-id="1575"></path><path d="M506.016 368.69c-4.962 0.7-10.034 1.066-15.19 1.066a108.544 108.544 0 0 1-63.584-20.476c-27.558 13.178-46.596 41.308-46.596 73.892 0 21.706 8.462 41.422 22.248 56.074h119.25a81.644 81.644 0 0 0 20.968-41.726c-19.936-17.164-33.614-41.398-37.096-68.83z" fill="#FFE37B" p-id="1576"></path><path d="M495.53 428.28c-2.914-3.37-6.834-5.588-11.76-6.648a68.594 68.594 0 0 0 2.838-1.306c0.534-0.262 1.48-0.926 2.844-1.988 4.016-3.028 6.022-7.652 6.022-13.862 0-5.154-1.78-9.768-5.342-13.858-1.964-2.2-4.902-3.942-8.804-5.234a34.22 34.22 0 0 0-3.714-0.96v-10.104h-13.938v9.132h-9.344v-9.132h-13.94v9.132h-15.256v15h11.362v49.43h-11.362v15h15.256v9.136h13.94v-9.136h9.344v9.136h13.938v-9.48c7.57-0.816 13.128-3.142 16.61-7.04 3.79-4.238 5.682-9.128 5.682-14.662-0.004-4.998-1.46-9.18-4.376-12.556z m-41.306-29.826h8.524c5.226 0 8.936 0.568 11.132 1.704 2.198 1.134 3.296 3.464 3.296 6.988 0 3.52-1.192 5.816-3.58 6.872-2.386 1.062-6.04 1.594-10.962 1.594h-8.41v-17.158z m23.578 47.55c-2.538 1.254-6.348 1.878-11.422 1.878h-12.156v-18.292h10.454c5.906 0 10.206 0.59 12.896 1.758 2.688 1.18 4.034 3.602 4.034 7.278 0.002 3.666-1.266 6.132-3.806 7.378z" fill="#FFFFFF" p-id="1577"></path><path d="M614.178 245.756c-5.158 0-10.222 0.384-15.19 1.076 0.576 4.542 0.906 9.158 0.906 13.856 0 55.082-40.838 100.598-93.88 107.992 6.81 53.692 52.624 95.214 108.164 95.214 60.236 0 109.068-48.83 109.068-109.066 0-60.238-48.832-109.072-109.068-109.072z" fill="#5D8EF9" p-id="1578"></path><path d="M614.178 272.96c-5.186 0-10.252 0.504-15.17 1.426-4.948 39.456-30.946 72.352-66.414 87.072 3.378 42.11 38.602 75.238 81.584 75.238 45.214 0 81.87-36.652 81.87-81.868-0.002-45.218-36.656-81.868-81.87-81.868z" fill="#8AC9F9" p-id="1579"></path><path d="M614.178 299.786l-33.576 51.222 33.576 24.754 33.574-24.748z" fill="#FFFFFF" p-id="1580"></path><path d="M614.178 384.196l-33.576-26.446 33.576 52.11 33.574-52.11z" fill="#FFFFFF" p-id="1581"></path><path d="M490.826 151.62c-60.238 0-109.07 48.828-109.07 109.068 0 60.238 48.832 109.068 109.07 109.068 60.234 0 109.068-48.83 109.068-109.068 0-60.24-48.834-109.068-109.068-109.068z" fill="#330D84" p-id="1582"></path><path d="M407.374 263.686a81.872 81.868 0 1 0 163.744 0 81.872 81.868 0 1 0-163.744 0Z" fill="#5932AE" p-id="1583"></path><path d="M536.184 282.418v-58.23l-45.358 46.492-45.358-46.492v58.23h-13.712v14.768h28.478v-36.714l30.592 31.326 30.588-31.326v36.714h28.482v-14.768z" fill="#FFFFFF" p-id="1584"></path><path d="M836.732 608.58a63.5 63.5 0 0 1-46.152-46.144l-0.968-3.88-0.97 3.88a63.496 63.496 0 0 1-46.146 46.144l-3.88 0.972 3.88 0.966a63.488 63.488 0 0 1 46.146 46.148l0.97 3.876 0.968-3.876a63.494 63.494 0 0 1 46.152-46.148l3.878-0.966-3.878-0.972z" fill="#330D84" p-id="1585"></path><path d="M292.542 428.64a40.096 40.096 0 0 1-29.144-29.136l-0.61-2.45-0.618 2.45a40.086 40.086 0 0 1-29.146 29.136l-2.444 0.618 2.444 0.62a40.078 40.078 0 0 1 29.146 29.142l0.618 2.45 0.61-2.45a40.084 40.084 0 0 1 29.144-29.142l2.45-0.62-2.45-0.618zM355.344 327.858a67.84 67.84 0 0 1-49.314-49.314l-1.042-4.14-1.04 4.14a67.842 67.842 0 0 1-49.318 49.314l-4.14 1.042 4.14 1.04a67.84 67.84 0 0 1 49.318 49.316l1.04 4.142 1.042-4.142a67.834 67.834 0 0 1 49.314-49.316l4.15-1.04-4.15-1.042z" fill="#FFBE1B" p-id="1586"></path><path d="M803.53 450.79a51.95 51.95 0 0 1-37.764-37.76l-0.79-3.172-0.796 3.172a51.936 51.936 0 0 1-37.76 37.76l-3.174 0.798 3.174 0.798a51.93 51.93 0 0 1 37.76 37.754l0.796 3.17 0.79-3.17a51.946 51.946 0 0 1 37.764-37.754l3.176-0.798-3.176-0.798z" fill="#5D8EF9" p-id="1587"></path><path d="M315.546 563.202v216.804c0 20.232 16.402 36.634 36.636 36.634h319.64c20.23 0 36.628-16.402 36.628-36.634V563.202H315.546z" fill="#330D84" p-id="1588"></path><path d="M706.114 479.246h-388.22c-17.954 0-32.506 14.554-32.506 32.498v29.448c0 17.954 14.552 32.506 32.506 32.506h388.22c17.95 0 32.5-14.552 32.5-32.506v-29.448c0-17.944-14.552-32.498-32.5-32.498z" fill="#6857E5" p-id="1589"></path><path d="M563.398 609.55h-102.794a12.1 12.1 0 0 0-12.102 12.096v10.962a12.1 12.1 0 0 0 12.102 12.098h102.794a12.1 12.1 0 0 0 12.1-12.098v-10.962a12.1 12.1 0 0 0-12.1-12.096z" fill="#EDF3FC" p-id="1590"></path></svg>